<svg width="234" height="121" viewBox="0 0 234 121" fill="none" xmlns="http://www.w3.org/2000/svg">
<path d="M0.461914 30.8208H106.021V60.8208H0.461914V30.8208Z" fill="#151515"/>
<path d="M76.0205 60.8208H106.021V90.8208H76.0205V60.8208Z" fill="#151515"/>
<path d="M46.0205 60.8208H76.0205V90.8208H46.0205V60.8208Z" fill="#151515"/>
<path d="M76.0205 90.8208H106.021V120.821H76.0205V90.8208Z" fill="#151515"/>
<path d="M106.021 30.8208H136.021V61.5854H106.021V30.8208Z" fill="#151515"/>
<path d="M106.021 61.5854H203.176V91.5854H106.021V61.5854Z" fill="#151515"/>
<path d="M106.021 90.8208H203.176V120.821H106.021V90.8208Z" fill="#151515"/>
<path d="M72.5342 0.820801H102.534V30.8208H72.5342V0.820801Z" fill="#151515"/>
<path d="M203.177 61.5854H233.177V91.5854H203.177V61.5854Z" fill="#151515"/>
<path d="M136.021 31.5854H166.021V61.5854H136.021V31.5854Z" fill="#151515"/>
</svg>
